# xmcd
#
# Track frame offsets:
#	150
#	13090
#	22975
#	39045
#	51825
#	63062
#	80572
#	94607
#	107640
#
# Disc length: 1649 seconds
#
# Revision: 1
# Processed by: cddbd v1.4PL0 Copyright (c) Steve Scherf et al.
# Submitted via: audiograbber 1.81.03
#
DISCID=5d066f09
DTITLE=Merle Haggard - Fightin' Side Of Me
DYEAR=1996
DGENRE=Country
TTITLE0=Fightin' Side Of Me
TTITLE1=Mama Tried
TTITLE2=It's Not Love
TTITLE3=Swinging Doors
TTITLE4=(My Friends Are Gonna Be) Strangers
TTITLE5=I Think I'll Just Stay Here And Drink
TTITLE6=I'm A lonesome Fugitive
TTITLE7=Kentucky Gambler
TTITLE8=Ramblin' Fever
EXTD=
EXTT0=
EXTT1=
EXTT2=
EXTT3=
EXTT4=
EXTT5=
EXTT6=
EXTT7=
EXTT8=
PLAYORDER=
